@startuml
skinparam classFontStyle bold
skinparam captionFontStyle bold
title **Parents and Children of**\n**'helm-moccur-class'**\n\n
"helm-source-in-buffer" <|-- "helm-moccur-class"
class "helm-source-in-buffer"
"helm-source" <|-- "helm-source-in-buffer"
class "helm-source"
class "helm-moccur-class" {
	__ some interesting slots __
	buffer-name
	moccur-buffers
}
note right of "helm-moccur-class"
	**helm-moccur-class**
end note
@enduml
